<svg width="256" height="256" viewBox="0 0 256 256" fill="none" xmlns="http://www.w3.org/2000/svg">
<rect x="3.5" y="3.5" width="249" height="249" rx="124.5" fill="url(#paint0_linear_24_49)"/>
<rect x="3.5" y="3.5" width="249" height="249" rx="124.5" stroke="#281167" stroke-width="7"/>
<g clip-path="url(#clip0_24_49)">
<path d="M176.175 87.8225C182.698 87.8365 189.117 89.4586 194.864 92.5453C200.611 95.6319 205.508 100.088 209.122 105.519C212.736 110.949 214.955 117.187 215.583 123.68C216.211 130.173 215.228 136.721 212.722 142.743C210.216 148.766 206.264 154.078 201.215 158.209C196.166 162.339 190.177 165.162 183.777 166.426C177.378 167.689 170.765 167.356 164.525 165.455C158.285 163.553 152.61 160.143 148.003 155.525L127.5 137.383L106.629 155.894C99.2175 163.184 89.2204 167.241 78.825 167.177C72.3018 167.163 65.8826 165.541 60.1358 162.455C54.389 159.368 49.4919 154.912 45.878 149.481C42.2641 144.051 40.0449 137.813 39.417 131.32C38.789 124.827 39.7716 118.279 42.2777 112.257C44.7839 106.234 48.7363 100.922 53.785 96.7913C58.8338 92.6605 64.8231 89.8383 71.2227 88.5744C77.6224 87.3106 84.235 87.6441 90.475 89.5454C96.715 91.4467 102.39 94.8572 106.998 99.475L127.5 117.618L148.371 99.1063C155.783 91.8165 165.78 87.7593 176.175 87.8225ZM96.525 145.126L116.438 127.5L96.82 110.169C93.962 107.173 90.4048 104.934 86.4677 103.653C82.5305 102.371 78.3368 102.088 74.2631 102.828C70.1894 103.567 66.3631 105.307 63.1279 107.891C59.8928 110.475 57.35 113.822 55.7278 117.631C54.1057 121.441 53.455 125.593 53.8342 129.716C54.2134 133.839 55.6106 137.803 57.9004 141.253C60.1902 144.703 63.3008 147.53 66.953 149.48C70.6052 151.43 74.6847 152.443 78.825 152.427C82.1173 152.436 85.3782 151.788 88.4173 150.521C91.4563 149.255 94.2126 147.396 96.525 145.053M158.475 109.8L138.563 127.5L158.18 144.831C161.038 147.827 164.595 150.066 168.532 151.347C172.469 152.629 176.663 152.912 180.737 152.172C184.811 151.433 188.637 149.693 191.872 147.109C195.107 144.525 197.65 141.178 199.272 137.369C200.894 133.559 201.545 129.407 201.166 125.284C200.787 121.161 199.389 117.197 197.1 113.747C194.81 110.297 191.699 107.47 188.047 105.52C184.395 103.57 180.315 102.557 176.175 102.573C172.888 102.555 169.63 103.191 166.591 104.445C163.553 105.698 160.794 107.544 158.475 109.874V109.8Z" fill="#233A63"/>
</g>
<defs>
<linearGradient id="paint0_linear_24_49" x1="0" y1="0" x2="256" y2="256" gradientUnits="userSpaceOnUse">
<stop stop-color="#1000F1"/>
<stop offset="1" stop-color="#9900FF"/>
</linearGradient>
<clipPath id="clip0_24_49">
<rect width="177" height="177" fill="white" transform="translate(39 39)"/>
</clipPath>
</defs>
</svg>
