<svg xmlns="http://www.w3.org/2000/svg" viewBox="0 0 100 100">
  <defs>
    <linearGradient id="pyBlue" x1="0%" y1="0%" x2="100%" y2="100%">
      <stop offset="0%" style="stop-color:#3b82f6"/>
      <stop offset="100%" style="stop-color:#1d4ed8"/>
    </linearGradient>
    <linearGradient id="pyYellow" x1="0%" y1="0%" x2="100%" y2="100%">
      <stop offset="0%" style="stop-color:#fbbf24"/>
      <stop offset="100%" style="stop-color:#f59e0b"/>
    </linearGradient>
  </defs>
  <circle cx="50" cy="50" r="48" fill="#1e3a5f"/>
  <!-- Python logo simplified -->
  <path d="M50 15 C35 15 25 25 25 35 L25 45 L50 45 L50 48 L20 48 L20 35 C20 20 35 10 50 10 C65 10 80 20 80 35 L80 40 L55 40 L55 35 C55 30 53 25 50 25 C47 25 45 30 45 35 L45 45 L70 45 L70 35 C70 25 65 15 50 15" fill="url(#pyBlue)"/>
  <path d="M50 85 C65 85 75 75 75 65 L75 55 L50 55 L50 52 L80 52 L80 65 C80 80 65 90 50 90 C35 90 20 80 20 65 L20 60 L45 60 L45 65 C45 70 47 75 50 75 C53 75 55 70 55 65 L55 55 L30 55 L30 65 C30 75 35 85 50 85" fill="url(#pyYellow)"/>
  <!-- Eyes on snakes -->
  <circle cx="35" cy="30" r="3" fill="white"/>
  <circle cx="65" cy="70" r="3" fill="white"/>
</svg>